# xmcd
#
# Track frame offsets: 
#        150
#        26375
#        53949
#        121992
#        142234
#        165124
#        187549
#        277265
#
# Disc length: 4065 seconds
#
# Revision: 0
# Processed by: cddbd v1.5.2PL0 Copyright (c) Steve Scherf et al.
# Submitted via: ExactAudioCopy v1.0b3
#
DISCID=670fdf08
DTITLE=Cornmeal - Live in Chicago Vol ll
DYEAR=2011
DGENRE=Bluegrass
TTITLE0=Johnny Put Down Your Gun
TTITLE1=This Old Town
TTITLE2=Shelter
TTITLE3=That's That
TTITLE4=Sooner Or Later
TTITLE5=Drinking Away The Memory of You
TTITLE6=Troubled Land
TTITLE7=Light at the End of the Tunnel
EXTD=
EXTT0=
EXTT1=
EXTT2=
EXTT3=
EXTT4=
EXTT5=
EXTT6=
EXTT7=
PLAYORDER=
